# xmcd
#
# Track frame offsets:
#	150
#	14098
#	25699
#	35514
#	50272
#	61365
#	73876
#	85821
#	95512
#	105320
#	115805
#	128180
#	140954
#	152896
#	167387
#	178800
#	188376
#	199290
#	210714
#	220896
#	238259
#	251771
#	263402
#	273782
#	286791
#	294373
#	304372
#	319949
#	329522
#	339679
#
# Disc length: 4676 seconds
#
# Revision: 3
# Processed by: cddbd v1.5.2PL0 Copyright (c) Steve Scherf et al.
# Submitted via: EZCDAudioConverter 1.3.4.1
#
DISCID=c612421e
DTITLE=Joe Meek Freakbeat - You're Holding Me Down
DYEAR=2007
DGENRE=
TTITLE0=The Buzz - You're Holding Me Down
TTITLE1=Paul and Ritchie and The Cryin' Shames - Come On Back
TTITLE2=Blue Rondos - Baby I Go For You
TTITLE3=The Syndicats - Crawdaddy Simone
TTITLE4=The Bystanders - She Comforts My Sorrow
TTITLE5=Birds Of Prey - Love Gone Again
TTITLE6=Blue Rondos - Little Baby
TTITLE7=David John and The Mood - I Love To See You Strut
TTITLE8=Jason Eddie and The Centremen - What'cha Gonna Do Baby
TTITLE9=The Saxons - It Ain't Right
TTITLE10=Cryin' Shames - Let Me In
TTITLE11=Riot Squad - I Take It That We're Through
TTITLE12=David John and The Mood - Diggin' For Gold
TTITLE13=Charles Kingsley Creation - Summer Without Sun
TTITLE14=Riot Squad - Walking On Ice
TTITLE15=Heinz and The Wild Boys - Big Fat Spider
TTITLE16=Jason Eddie and The Centremen - Come On Baby
TTITLE17=Cryin' Shames - What's News, Pussycat
TTITLE18=Blue Rondos - What Can I Do
TTITLE19=Birds Of Prey - City Lights
TTITLE20=Tornados '66 - No More You And Me
TTITLE21=The Impac - Too Far Out
TTITLE22=The Puppets - Shake With Me
TTITLE23=The Syndicats - Leave My Kitten Alone
TTITLE24=Shade Joey and The Night Owls - Bluebirds Over The Mountain
TTITLE25=David John and The Mood - Bring It To Jerome
TTITLE26=The Buzz - I Gotta Buzz
TTITLE27=The Hotrods - I Don't Love Her No More
TTITLE28=Heinz and The Wild Boys - I'm Not A Bad Guy
TTITLE29=Jason Eddie and The Centremen - Singing The Blues
EXTD=
EXTT0=
EXTT1=
EXTT2=
EXTT3=
EXTT4=
EXTT5=
EXTT6=
EXTT7=
EXTT8=
EXTT9=
EXTT10=
EXTT11=
EXTT12=
EXTT13=
EXTT14=
EXTT15=
EXTT16=
EXTT17=
EXTT18=
EXTT19=
EXTT20=
EXTT21=
EXTT22=
EXTT23=
EXTT24=
EXTT25=
EXTT26=
EXTT27=
EXTT28=
EXTT29=
PLAYORDER=
